<?xml version="1.0" encoding="UTF-8"?>
<svg width="1024px" height="1024px" viewBox="0 0 1024 1024" version="1.1" xmlns="http://www.w3.org/2000/svg" xmlns:xlink="http://www.w3.org/1999/xlink">
    <!-- Generator: Sketch 48.2 (47327) - http://www.bohemiancoding.com/sketch -->
    <title>Combined Shape</title>
    <desc>Created with Sketch.</desc>
    <defs></defs>
    <g id="Desktop" stroke="none" stroke-width="1" fill="none" fill-rule="evenodd">
        <path d="M0,0 L1024,0 L1024,1024 L0,1024 L0,0 Z M447.424,531.704 C445.119988,533.240008 441.328026,534.775992 436.048,536.312 C430.767974,537.848008 425.15203,538.616 419.2,538.616 C406.527937,538.616 394.336059,534.392042 382.624,525.944 C376.67197,521.527978 371.776019,515.480038 367.936,507.8 C364.095981,500.119962 362.176,491.432048 362.176,481.736 C362.176,472.039952 364.095981,463.352038 367.936,455.672 C371.776019,447.991962 376.575971,442.040021 382.336,437.816 C394.43206,429.175957 406.719938,424.856 419.2,424.856 C432.640067,424.856 443.39196,428.119967 451.456,434.648 C457.792032,438.872021 462.687983,440.984 466.144,440.984 C472.09603,440.984 478.815963,435.800052 486.304,425.432 C490.33602,419.863972 492.352,414.536025 492.352,409.448 C492.352,404.359975 489.856025,399.80002 484.864,395.768 C482.94399,394.423993 480.256017,392.696011 476.8,390.584 L469.888,386.552 C465.087976,383.671986 458.032047,380.840014 448.72,378.056 C439.407953,375.271986 430.240045,373.88 421.216,373.88 C402.207905,373.88 383.296094,379.063948 364.48,389.432 C354.49595,394.808027 345.616039,401.47996 337.84,409.448 C330.063961,417.41604 323.680025,427.495939 318.688,439.688 C313.695975,451.880061 311.2,465.463925 311.2,480.44 C311.2,495.416075 313.743975,509.287936 318.832,522.056 C323.920025,534.824064 330.399961,545.287959 338.272,553.448 C346.144039,561.608041 355.023951,568.519972 364.912,574.184 C374.800049,579.848028 384.399953,583.879988 393.712,586.28 C403.024047,588.680012 412.239954,589.88 421.36,589.88 C430.480046,589.88 439.935951,588.344015 449.728,585.272 C459.520049,582.199985 465.999984,579.70401 469.168,577.784 C472.336016,575.86399 475.647983,573.848011 479.104,571.736 C482.560017,569.623989 485.583987,567.224013 488.176,564.536 C490.768013,561.847987 492.064,558.48802 492.064,554.456 C492.064,550.42398 489.952021,545.048034 485.728,538.328 C478.815965,527.575946 472.38403,522.2 466.432,522.2 C463.743987,522.2 459.136033,524.119981 452.608,527.96 L447.424,531.704 Z M647.296,384.824 C645.567991,388.088016 644.704,393.367964 644.704,400.664 L644.704,498.008 C631.071932,480.343912 604.000203,443.960276 563.488,388.856 C559.839982,384.439978 557.632004,381.944003 556.864,381.368 C555.519993,380.023993 553.168017,378.824005 549.808,377.768 C546.447983,376.711995 541.888029,376.184 536.128,376.184 C530.367971,376.184 525.664018,376.759994 522.016,377.912 C518.367982,379.064006 515.632009,381.319983 513.808,384.68 C511.983991,388.040017 511.072,393.367964 511.072,400.664 L511.072,561.368 C511.072,565.784022 511.215999,569.143988 511.504,571.448 C511.792001,573.752012 512.703992,576.343986 514.24,579.224 C516.928013,584.408026 524.22394,587 536.128,587 C548.416061,587 555.903987,584.408026 558.592,579.224 C560.128008,576.343986 561.039999,573.848011 561.328,571.736 C561.616001,569.623989 561.76,566.264023 561.76,561.656 L561.76,466.904 C575.392068,484.568088 603.807784,522.199712 647.008,579.8 C648.92801,582.296012 651.327986,584.119994 654.208,585.272 C657.088014,586.424006 662.271963,587 669.76,587 C682.048061,587 689.535987,584.408026 692.224,579.224 C693.760008,576.343986 694.671999,573.848011 694.96,571.736 C695.248001,569.623989 695.392,566.264023 695.392,561.656 L695.392,401.816 C695.392,395.095966 694.816006,390.200015 693.664,387.128 C692.895996,384.439987 691.696008,382.424007 690.064,381.08 C688.431992,379.735993 685.936017,378.584005 682.576,377.624 C679.215983,376.663995 674.800027,376.184 669.328,376.184 C663.855973,376.184 659.296018,376.759994 655.648,377.912 C651.999982,379.064006 649.21601,381.367983 647.296,384.824 Z" id="Combined-Shape" fill="#1D1D1D"></path>
    </g>
</svg>